 http://en.wikipedia.org/wiki/Joker_(2012_film)
 
http://www.imdb.com/title/tt1918886/


Format                                   : Matroska
Format version                           : Version 2
File size                                : 899 MiB
Duration                                 : 1h 43mn
Overall bit rate                         : 1 214 Kbps

Video
ID                                       : 1
Format                                   : AVC
Format/Info                              : Advanced Video Codec
Format profile                           : High@L4.1
Format settings, CABAC                   : Yes
Format settings, ReFrames                : 4 frames
Muxing mode                              : Header stripping
Codec ID                                 : V_MPEG4/ISO/AVC
Duration                                 : 1h 43mn
Bit rate                                 : 1 150 Kbps
Width                                    : 1 280 pixels
Height                                   : 544 pixels
Display aspect ratio                     : 2.35:1
Original display aspect ratio            : 2.35:1
Frame rate                               : 23.976 fps
Color space                              : YUV
Chroma subsampling                       : 4:2:0
Bit depth                                : 8 bits
Scan type                                : Progressive
Bits/(Pixel*Frame)                       : 0.069
Stream size                              : 834 MiB (93%)


Audio
ID                                       : 2
Format                                   : AC-3
Bit rate mode                            : Constant
Bit rate                                 : 64.0 Kbps
Channel(s)                               : 2 channels
Channel positions                        : Front: L R
Sampling rate                            : 48.0 KHz
Bit depth                                : 16 bits
Compression mode                         : Lossy
Stream size                              : 47.4 MiB (5%)
Default                                  : Yes
Forced                                   : No

 
http://www.shotpix.com/images/35520568172883850820.png 
http://www.shotpix.com/images/01589216998237162791.png 
http://www.shotpix.com/images/20873694913528969336.png 
http://www.shotpix.com/images/02193048338975071152.png 
http://www.shotpix.com/images/89132388140598503375.png 
http://www.shotpix.com/images/56015102766575961827.png 
http://www.shotpix.com/images/16576518732351747888.png

                                    
                                Check The Sample First